<!-- created by svgstack.com | Attribution is required. --><svg width="48" height="48" viewBox="0 0 48 48" fill="none" xmlns="http://www.w3.org/2000/svg"><path fill-rule="evenodd" clip-rule="evenodd" d="M44.5 24C44.5 24.3978 44.342 24.7794 44.0607 25.0607L30.0607 39.0607C29.4749 39.6464 28.5251 39.6464 27.9393 39.0607C27.3536 38.4749 27.3536 37.5251 27.9393 36.9393L39.3787 25.5L5 25.5C4.17157 25.5 3.5 24.8284 3.5 24C3.5 23.1716 4.17157 22.5 5 22.5L39.3787 22.5L27.9393 11.0607C27.3536 10.4749 27.3536 9.52513 27.9393 8.93934C28.5251 8.35355 29.4749 8.35355 30.0607 8.93934L44.0607 22.9393C44.342 23.2206 44.5 23.6022 44.5 24Z" fill="black"/></svg> 